<?xml version="1.0" encoding="UTF-8" standalone="no"?>
<svg
   xmlns:dc="http://purl.org/dc/elements/1.1/"
   xmlns:cc="http://creativecommons.org/ns#"
   xmlns:rdf="http://www.w3.org/1999/02/22-rdf-syntax-ns#"
   xmlns:svg="http://www.w3.org/2000/svg"
   xmlns="http://www.w3.org/2000/svg"
   xmlns:xlink="http://www.w3.org/1999/xlink"
   xmlns:sodipodi="http://sodipodi.sourceforge.net/DTD/sodipodi-0.dtd"
   xmlns:inkscape="http://www.inkscape.org/namespaces/inkscape"
   sodipodi:docname="knob.svg"
   inkscape:version="1.0 (4035a4fb49, 2020-05-01)"
   width="100mm"
   height="100mm"
   viewBox="0 0 100 100"
   version="1.1"
   id="svg8">
  <defs
     id="defs2">
    <linearGradient
       id="linearGradient2222"
       inkscape:collect="always">
      <stop
         id="stop2218"
         offset="0"
         style="stop-color:#1a1a1a;stop-opacity:1;" />
      <stop
         id="stop2220"
         offset="1"
         style="stop-color:#808080;stop-opacity:1" />
    </linearGradient>
    <linearGradient
       gradientUnits="userSpaceOnUse"
       y2="86.042999"
       x2="65.996521"
       y1="12.40586"
       x1="33.39613"
       id="linearGradient2224"
       xlink:href="#linearGradient2222"
       inkscape:collect="always" />
  </defs>
  <sodipodi:namedview
     inkscape:window-maximized="1"
     inkscape:window-y="24"
     inkscape:window-x="2560"
     inkscape:window-height="1387"
     inkscape:window-width="2560"
     showgrid="false"
     inkscape:document-rotation="0"
     inkscape:current-layer="layer1"
     inkscape:document-units="mm"
     inkscape:cy="240.49144"
     inkscape:cx="132.11673"
     inkscape:zoom="1.979899"
     inkscape:pageshadow="2"
     inkscape:pageopacity="0.0"
     borderopacity="1.0"
     bordercolor="#666666"
     pagecolor="#ffffff"
     id="base" />
  <metadata
     id="metadata5">
    <rdf:RDF>
      <cc:Work
         rdf:about="">
        <dc:format>image/svg+xml</dc:format>
        <dc:type
           rdf:resource="http://purl.org/dc/dcmitype/StillImage" />
        <dc:title></dc:title>
      </cc:Work>
    </rdf:RDF>
  </metadata>
  <g
     id="layer1"
     inkscape:groupmode="layer"
     inkscape:label="Calque 1">
    <path
       d="M 34.655094,0 A 52.302061,52.301746 0 0 0 25.494459,3.7940857 17.357477,17.357373 0 0 1 26.265053,8.9077217 17.357477,17.357373 0 0 1 8.9071738,26.265496 17.357477,17.357373 0 0 1 3.7941078,25.494906 52.302061,52.301746 0 0 0 0,34.65609 17.357479,17.357375 0 0 1 9.2435208,50.000001 17.357479,17.357375 0 0 1 0,65.344514 a 52.302061,52.301746 0 0 0 3.7941078,9.16058 17.357479,17.357375 0 0 1 5.113066,-0.770589 17.357479,17.357375 0 0 1 17.3578792,17.357777 17.357479,17.357375 0 0 1 -0.770594,5.113036 52.302061,52.301746 0 0 0 9.161237,3.79468 17.357479,17.357374 0 0 1 15.344003,-9.244664 17.357479,17.357374 0 0 1 15.344606,9.244064 52.302061,52.301746 0 0 0 9.160635,-3.79408 17.357478,17.357374 0 0 1 -0.770594,-5.113036 17.357478,17.357374 0 0 1 17.357881,-17.357777 17.357478,17.357374 0 0 1 5.113064,0.770589 A 52.302061,52.301746 0 0 0 100,65.343914 17.357478,17.357374 0 0 1 90.755278,50.000001 17.357478,17.357374 0 0 1 99.999401,34.655486 52.302061,52.301746 0 0 0 96.205291,25.494906 17.357478,17.357374 0 0 1 91.092227,26.265496 17.357478,17.357374 0 0 1 73.734346,8.9077217 17.357478,17.357374 0 0 1 74.50494,3.7946857 52.302061,52.301746 0 0 0 65.343706,0 17.357477,17.357373 0 0 1 49.999699,9.2440657 17.357477,17.357373 0 0 1 34.655094,0 Z"
       style="fill:url(#linearGradient2224);fill-opacity:1;fill-rule:evenodd;stroke-width:0.461274;stroke:#b5b5b5;stroke-opacity:1"
       id="path169" />
    <rect
       y="71.726341"
       x="49.332272"
       height="18.685932"
       width="2.7981083"
       id="rect2226"
       style="fill:#ffffff;stroke:#b5b5b5;stroke-width:0.264583;stroke-opacity:0.92156863" />
  </g>
</svg>
